<?xml version="1.0" standalone="no"?>
<!DOCTYPE svg PUBLIC "-//W3C//DTD SVG 20010904//EN"
 "http://www.w3.org/TR/2001/REC-SVG-20010904/DTD/svg10.dtd">
<svg version="1.0" xmlns="http://www.w3.org/2000/svg"
 width="512.000000pt" height="512.000000pt" viewBox="0 0 512.000000 512.000000"
 preserveAspectRatio="xMidYMid meet">
<metadata>
Created by potrace 1.11, written by Peter Selinger 2001-2013
</metadata>
<g transform="translate(0.000000,512.000000) scale(0.100000,-0.100000)"
fill="#000000" stroke="none">
<path d="M2395 5109 c-128 -8 -260 -30 -398 -65 -667 -168 -1225 -649 -1476
-1271 -92 -227 -132 -426 -138 -688 -6 -218 8 -348 58 -547 195 -774 896
-1646 1924 -2395 77 -56 154 -110 171 -119 l32 -17 83 58 c716 500 1340 1126
1694 1701 425 690 514 1344 268 1984 -239 624 -802 1118 -1469 1290 -153 40
-265 58 -429 70 -152 11 -158 11 -320 -1z m340 -549 c426 -49 806 -255 1068
-580 240 -298 358 -634 358 -1015 -1 -806 -584 -1470 -1391 -1585 -56 -8 -147
-11 -260 -7 -262 8 -417 46 -645 157 -273 133 -475 310 -642 563 -415 629
-328 1470 208 2006 344 344 828 515 1304 461z"/>
<path d="M2430 3795 c-127 -29 -271 -119 -357 -224 -42 -51 -103 -162 -115
-209 -4 -14 -18 -21 -54 -27 -126 -19 -283 -131 -357 -256 -59 -100 -80 -184
-75 -304 3 -87 8 -109 35 -168 38 -80 114 -163 182 -201 106 -57 84 -56 877
-56 692 0 734 1 786 19 160 55 272 188 300 354 39 236 -141 446 -382 447 l-56
0 -11 78 c-30 201 -147 378 -319 478 -123 72 -314 101 -454 69z"/>
</g>
</svg>
